<svg width="41" height="40" viewBox="0 0 41 40" fill="none" xmlns="http://www.w3.org/2000/svg">
<path d="M22.9501 23.9833H18.0501C15.9334 23.9833 14.6667 25.25 14.6667 27.3667V32.2667C14.6667 34.3833 15.9334 35.65 18.0501 35.65H22.9501C25.0667 35.65 26.3334 34.3833 26.3334 32.2667V27.3667C26.3334 25.25 25.0667 23.9833 22.9501 23.9833ZM24.5167 30.5333C24.3501 30.7 24.1001 30.8167 23.8334 30.8333H21.4834L21.5001 33.15C21.4834 33.4333 21.3834 33.6667 21.1834 33.8667C21.0167 34.0333 20.7667 34.15 20.5001 34.15C19.9501 34.15 19.5001 33.7 19.5001 33.15V30.8167L17.1667 30.8333C16.6167 30.8333 16.1667 30.3667 16.1667 29.8167C16.1667 29.2667 16.6167 28.8167 17.1667 28.8167L19.5001 28.8333V26.5C19.5001 25.95 19.9501 25.4833 20.5001 25.4833C21.0501 25.4833 21.5001 25.95 21.5001 26.5L21.4834 28.8167H23.8334C24.3834 28.8167 24.8334 29.2667 24.8334 29.8167C24.8167 30.1 24.7001 30.3333 24.5167 30.5333Z" fill="#64748B"/>
<path d="M34.1166 29.2833C33.2333 30.1 32.2166 30.7167 31.1166 31.1333C30.0166 31.55 28.8333 30.75 28.8333 29.5667V27.3667C28.8333 24.1167 26.1999 21.4833 22.9499 21.4833H18.0499C14.7999 21.4833 12.1666 24.1167 12.1666 27.3667V30C12.1666 30.9167 11.4166 31.6667 10.4999 31.6667H9.74992C5.66659 31.05 3.83325 27.7333 3.83325 24.7667C3.83325 21.9667 5.46659 18.8667 9.01659 18C8.03325 14.1167 8.86659 10.4667 11.3999 7.81667C14.2833 4.8 18.8833 3.6 22.8499 4.83333C26.4999 5.95 29.0666 8.95 29.9833 13.1167C33.1666 13.8333 35.7166 16.2333 36.7332 19.5667C37.8333 23.1833 36.8333 26.9 34.1166 29.2833Z" fill="#64748B"/>
</svg>
